<svg width="93" height="43" fill="none" xmlns="http://www.w3.org/2000/svg">
    <path d="M17.425 18.478c0 .046-.05.046-.05.092 0 0-.514.596-.718.871-.103.138-.154.23-.257.367-.307.367-.563.734-.871 1.146-.359.505-.666 1.01-1.179 1.376-.461.321-1.076.55-1.537.825a7.352 7.352 0 00-.77.505 2.775 2.775 0 00-.46.32c-.308.23-.564.46-.872.643-.307.229-.666.458-1.025.687a6.727 6.727 0 01-.974.55c-.102.047-.153.092-.256.092-.461.138-.871.275-1.333.459h-.205c-.358.137-.666.23-.717.23l4.408-3.852 5.586-5.686c.103-.092.154-.23.256-.321.154-.138.308-.275.462-.367h.051s-.922 1.238-1.384 1.834l-.307.413c-.308.458-.615.963-.82 1.467.563-.137 1.127-.183 1.588-.55.36-.321.82-.78 1.384-1.1zm2.973-5.685c.205-.138.461-.184.666-.321.308-.23.359-.734.462-1.1.256-.643.563-1.284.973-1.835l.052-.046c0-.045-.052-.045-.052-.045-1.537 1.559-2.819 3.347-4.1 5.043v.046l-.102.092c0 .046.05.092.05.046.36-.367.667-.734 1.026-1.055h.051c.051-.046.103-.138.205-.183.256-.275.513-.505.769-.642zM34.134 9.72c.051 0 .051-.046 0 0 0-.275-.051-.367-.257-.505-.256-.183-.102.092-.512-.275-.103-.092-.205-.275-.308-.367-.41-.412-1.23-.596-1.896-.642 0 0-.051-.045-.102-.045h-.103c-.41-.046-.82 0-1.23.091h-.051c-.052 0-.103.046-.103.092-.256.275-.461.642-.666.963-.256.367-.564.688-.82 1.009.102-.275.256-.596.359-.872.05-.183.153-.366.205-.55v-.046c.05-.183.153-.366.05-.458-.05-.23-.255-.321-.41-.459-.358-.229-.614-.458-.922-.733-.102-.092-.307-.321-.512-.275-.256.045-.154.412-.41.458V7.06c-.103-.275-.308-.458-.513-.642 0 0-.154.092-.205.092-.205.413-.051 1.055-.051 1.467 0 .55-.051 1.1-.102 1.697-.36.092-.718.183-.718.55 0 .275.051.504.102.78v.275c-.102.32-.46.596-.512.917-.103.275-.154.55-.256.78-.564.916-.923 1.88-1.794 2.704-.871.872-1.999 1.514-2.922 2.293 0 0 0 .046.052.046 0 0 0 .046.05.046l2.307-.23 3.895-2.017 5.023-2.66 3.332-3.438zm50.791 16.598c-.102-.046-.205-.091-.256-.183 0 0-.051 0-.051-.046-.359-.275-.82-.138-1.23-.183-.205 0-.462-.092-.667-.184-.563-.23-1.127-.596-1.64-.871-.82-.505-1.64-.963-2.511-1.33.256.184.564.367.82.596.974.688 2.101 1.376 2.973 2.247a.59.59 0 01.256.23s.051 0 .051.045c.051 0 .051.046 0 .092-.564.046-1.23.091-1.845.046h-.461c-.564.046-1.128.091-1.692.046-.512-.046-.922-.184-1.383-.321-.615-.23-1.128-.276-1.794-.23-.974.046-1.845.138-2.768-.32a6.61 6.61 0 01-.974-.597c-.512-.229-1.076-.458-1.64-.55-.769-.092-1.332.23-2.05.321h-.307c-.513.092-.974.046-1.538.046h-.103c-.307.046-.614.092-.973.137l-.462.138c-.205.092-.41.183-.666.23-.307.045-.666.045-.974.045-.512.046-.974.138-1.486.23-.051 0-.102-.046-.051-.092.512-.688 1.23-1.238 1.999-1.743.46-.275.87-.55 1.28-.917.206-.183.462-.367.719-.504l.05-.046c-1.024.23-1.998.504-2.972.963-.922.458-1.794.917-2.768 1.33-.922.366-1.793.87-2.716 1.238a3.553 3.553 0 01-.922.275h-.154c-.615.137-3.383.825-3.588.87-.102.047 7.278-7.015 7.278-7.015l4.305-6.602 2.05-3.164s-2.306 1.284-2.357 1.376c-.052.045 1.486-1.743 2.511-2.89.205-.274.564-.779.769-.962h.102l.615.55 7.227 6.053 7.022 8.482c.512.505 1.025.963 1.537 1.468l.154.137c.461.413 1.127.917 1.384 1.467 0 .092-.052.138-.103.092zm-17.58-13.526l-.41-.734s-1.383 1.513-1.537 1.834c-.154.321-.461 1.238-.461 1.238s1.127-.55 1.64-.963c.461-.504.769-1.375.769-1.375zm-14.76 2.063c1.025-.825 2.152-1.696 3.126-2.614.462-.32.923-1.33 1.282-1.834.05-.045 0-.045 0-.091v-.046c-.206-.413-3.64-4.356-4.357-5.044-.82-.78-4.408-4.54-4.869-5.181 0-.046-.051-.046-.103-.046l-.05.046c-.052.046-3.588 3.668-4.306 4.402-.513.504-3.588 3.026-4.1 3.53l-.462.413c-.358.32-.768.596-1.025.963 0 0 0 .046.052.046a.408.408 0 01.205-.092c.205-.092.41-.138.615-.23a32.446 32.446 0 003.536-1.329c1.128-.413 2.05-1.192 3.024-1.834l.051-.046v.046a3.39 3.39 0 01-.205.688c-.205.504-.615.87-.82 1.375 0 0 0 .046.051.046 0 0 .052.046.052 0 .564-.23 1.23-.413 1.742-.78.052 0 .052-.045.103-.045.102-.046.154-.092.256-.138.205-.137.359-.229.513-.412.05-.046.102-.138.153-.184.154-.183.308-.413.462-.642l.768-.825c.103-.092.205-.138.257-.23-.257.23-1.743 4.265-1.743 4.265l-5.791 6.007L27.88 26.227l1.845-.918c.769-.091 1.435-.504 2.05-.917.41-.275.82-.55 1.333-.78.512-.228 1.076-.274 1.64-.412.41-.091.769-.367 1.127-.596.462-.275.923-.55 1.435-.825.923-.505 1.846-.871 2.82-1.284.05 0 .05-.046.102-.046-.359.413-.718.825-.769 1.33-.102.642-.461 1.421-.769 2.017 0 .046 0 .046.051.046.052-.046 2.614-1.605 3.588-2.613.769-.734 1.333-1.605 2.05-2.385l.052-.046.307-.275.154-.137.256-.23.154-.137c.512-.367 1.076-.734 1.486-1.192.359-.413.564-.917.769-1.376.256-.688.615-1.284 1.23-1.742.461-.321.923-.596 1.23-1.009-.102 1.284-1.025 2.384-1.589 3.53-.512 1.01-.871 2.064-1.589 3.027 0 .046 0 .046.052.046l.05-.046c.411-.321.872-.642 1.282-.963.77-.459 1.435-1.055 2.102-1.605.717-.596 1.486-1.238 2.255-1.834zm1.025 4.448c0 .046.051.046.051.046l3.331-.917 3.896-5.32-.718.413c-.256.092-.564.23-.82.367.256-.229.666-.596.666-.825.052-.184.052-.184-.153-.321a1.094 1.094 0 00-.513-.275c-.256-.092-.666-.092-.82-.275-.051-.092-.051-.459-.102-.55-.052-.184-.257-.46-.308-.46h-.051l-.103.093c-.563.825-1.076 1.65-1.691 2.43-.718.917-1.64 1.65-2.46 2.522-.308.32-.513.688-.769 1.008-.359.505-.82.918-1.281 1.33-.872.78-1.845 1.467-2.717 2.201-.05.046-.05.138.052.092a5.568 5.568 0 002.1-.871c.616-.413 1.436-1.055 2.256-1.1.051.137.154.228.154.412z" fill="url(#paint0_linear)"/>
    <defs>
        <linearGradient id="paint0_linear" x1="22.255" y1="-6.879" x2="62.049" y2="64.153" gradientUnits="userSpaceOnUse">
            <stop stop-color="#70AFCC"/>
            <stop offset=".349" stop-color="#3286AE"/>
            <stop offset=".43" stop-color="#1E7DA7"/>
            <stop offset=".535" stop-color="#37658E"/>
            <stop offset=".639" stop-color="#414F79"/>
            <stop offset=".741" stop-color="#463D6A"/>
            <stop offset=".837" stop-color="#483261"/>
            <stop offset=".925" stop-color="#492A5B"/>
            <stop offset="1" stop-color="#49275A"/>
        </linearGradient>
    </defs>
</svg>
