<svg width="18" height="22" fill="none" xmlns="http://www.w3.org/2000/svg">
    <path d="M4.5 14.208h-.45v.917h.45c.248 0 .45-.206.45-.458a.456.456 0 00-.45-.459zm4.726 0H8.55v2.75h.675a.228.228 0 00.225-.229v-2.291a.228.228 0 00-.225-.23z" fill="#C3002F"/>
    <path d="M15.525 0H2.475C1.108 0 0 1.129 0 2.52v16.96C0 20.87 1.108 22 2.475 22h13.05C16.892 22 18 20.871 18 19.48V2.52C18 1.13 16.892 0 15.525 0zM4.5 16.5h-.45v1.146a.683.683 0 01-.675.687.683.683 0 01-.675-.687V13.52c0-.378.304-.688.675-.688H4.5c.99 0 1.8.825 1.8 1.834 0 1.008-.81 1.833-1.8 1.833zm6.3.23c0 .881-.709 1.603-1.575 1.603h-1.35a.683.683 0 01-.675-.687V13.52c0-.378.304-.688.675-.688h1.35c.866 0 1.575.722 1.575 1.604v2.292zm3.825-1.605c.371 0 .675.31.675.688a.683.683 0 01-.675.687H13.05v1.146a.683.683 0 01-.675.687.683.683 0 01-.675-.687v-3.209c0-.882.709-1.604 1.575-1.604h1.35c.371 0 .675.31.675.688a.683.683 0 01-.675.687h-1.35a.228.228 0 00-.225.23v.687h1.575z" fill="#C3002F"/>
</svg>
