<svg class="shape waves small" xmlns="http://www.w3.org/2000/svg" width="30" height="30">
    <path fill="none" stroke="#b5d8dc" stroke-linecap="round" stroke-linejoin="round" d="M2.145 23.651c1.092 0 1.55-.52 2.241-1.308.828-.941 1.861-2.11 4.101-2.07a2.82 2.82 0 01.13-.003c2.163 0 3.171 1.148 3.985 2.073.692.788 1.149 1.308 2.241 1.308.054 0 .106.006.157.013a1.16 1.16 0 01.157-.013c1.093 0 1.55-.52 2.241-1.308.828-.941 1.86-2.11 4.101-2.07l.129-.003c2.163 0 3.173 1.148 3.986 2.073.691.788 1.148 1.308 2.241 1.308"/>
    <path fill="none" stroke="#b5d8dc" stroke-linecap="round" stroke-linejoin="round" stroke-miterlimit="10" d="M2.145 16.684c1.092 0 1.55-.521 2.241-1.308.828-.941 1.861-2.111 4.101-2.071l.13-.001c2.163 0 3.171 1.148 3.985 2.072.692.788 1.149 1.308 2.241 1.308.054 0 .106.005.157.012a1.16 1.16 0 01.157-.012c1.093 0 1.55-.521 2.241-1.308.828-.941 1.86-2.111 4.101-2.071l.129-.001c2.163 0 3.173 1.148 3.986 2.072.691.788 1.148 1.308 2.241 1.308M2.145 9.714c1.092 0 1.55-.519 2.241-1.307.828-.941 1.861-2.111 4.101-2.071l.13-.001c2.163 0 3.171 1.147 3.985 2.072.692.788 1.149 1.307 2.241 1.307.054 0 .106.006.157.014a1.16 1.16 0 01.157-.014c1.093 0 1.55-.519 2.241-1.307.828-.941 1.86-2.111 4.101-2.071l.129-.001c2.163 0 3.173 1.147 3.986 2.072.691.788 1.148 1.307 2.241 1.307"/>
</svg>
